<svg width="52" height="52" viewBox="0 0 52 52" fill="none" xmlns="http://www.w3.org/2000/svg">
<path d="M19.5 24.375H9.92875C10.2308 22.3638 10.9489 20.4377 12.0373 18.7197C13.1258 17.0018 14.5605 15.5297 16.25 14.3975L19.1587 12.4475L17.3712 9.75L14.4625 11.7C12.0141 13.3316 10.0063 15.5424 8.61726 18.1362C7.22825 20.7299 6.50099 23.6265 6.5 26.5688V37.375C6.5 38.237 6.84241 39.0636 7.4519 39.6731C8.0614 40.2826 8.88805 40.625 9.75 40.625H19.5C20.362 40.625 21.1886 40.2826 21.7981 39.6731C22.4076 39.0636 22.75 38.237 22.75 37.375V27.625C22.75 26.763 22.4076 25.9364 21.7981 25.3269C21.1886 24.7174 20.362 24.375 19.5 24.375ZM42.25 24.375H32.6788C32.9808 22.3638 33.6989 20.4377 34.7873 18.7197C35.8758 17.0018 37.3105 15.5297 39 14.3975L41.9088 12.4475L40.1375 9.75L37.2125 11.7C34.7641 13.3316 32.7563 15.5424 31.3673 18.1362C29.9783 20.7299 29.251 23.6265 29.25 26.5688V37.375C29.25 38.237 29.5924 39.0636 30.2019 39.6731C30.8114 40.2826 31.638 40.625 32.5 40.625H42.25C43.112 40.625 43.9386 40.2826 44.5481 39.6731C45.1576 39.0636 45.5 38.237 45.5 37.375V27.625C45.5 26.763 45.1576 25.9364 44.5481 25.3269C43.9386 24.7174 43.112 24.375 42.25 24.375Z" fill="#FFE53D"/>
</svg>
