<svg width="27" height="26" viewBox="0 0 27 26" fill="none" xmlns="http://www.w3.org/2000/svg">
<path d="M18.672 17.5213L19.28 16.9173L17.868 15.4987L17.2627 16.1027L18.672 17.5213ZM21.3187 16.664L23.8667 18.0493L24.82 16.292L22.2734 14.908L21.3187 16.664ZM24.356 20.8013L22.4627 22.6853L23.872 24.1027L25.7654 22.22L24.356 20.8013ZM21.308 23.2907C19.3747 23.472 14.3747 23.3107 8.95869 17.9267L7.54803 19.344C13.4574 25.22 19.0827 25.508 21.4947 25.2827L21.308 23.2907ZM8.95869 17.9267C3.79736 12.7933 2.94136 8.47734 2.83469 6.604L0.837361 6.71734C0.970694 9.07467 2.03069 13.8587 7.54803 19.344L8.95869 17.9267ZM10.792 9.68667L11.1747 9.30534L9.76669 7.888L9.38403 8.268L10.792 9.68667ZM11.4787 4.45867L9.79869 2.21334L8.19736 3.41334L9.87736 5.65734L11.4787 4.45867ZM4.14403 1.724L2.05069 3.804L3.46136 5.22267L5.55336 3.14267L4.14403 1.724ZM10.088 8.97734C9.38136 8.268 9.38136 8.268 9.38136 8.27067H9.3787L9.3747 8.276C9.31133 8.33989 9.2546 8.41002 9.20536 8.48534C9.13336 8.592 9.0547 8.732 8.98803 8.90934C8.82573 9.3671 8.78529 9.85922 8.87069 10.3373C9.04936 11.4907 9.84403 13.0147 11.8787 15.0387L13.2894 13.62C11.384 11.7267 10.9307 10.5747 10.8467 10.0307C10.8067 9.772 10.848 9.644 10.86 9.61467C10.868 9.59689 10.868 9.59422 10.86 9.60667C10.8481 9.62507 10.8348 9.64246 10.82 9.65867L10.8067 9.672L10.7934 9.684L10.088 8.97734ZM11.8787 15.0387C13.9147 17.0627 15.4467 17.852 16.6014 18.028C17.192 18.1187 17.668 18.0467 18.0294 17.912C18.2318 17.838 18.4209 17.7317 18.5894 17.5973L18.656 17.5373L18.6654 17.5293L18.6694 17.5253L18.6707 17.5227C18.6707 17.5227 18.672 17.5213 17.9667 16.812C17.26 16.1027 17.264 16.1013 17.264 16.1013L17.2667 16.0987L17.2694 16.096L17.2774 16.0893L17.2907 16.076L17.3414 16.036C17.3538 16.028 17.3507 16.0289 17.332 16.0387C17.2987 16.0507 17.168 16.092 16.9054 16.052C16.3534 15.9667 15.1934 15.5133 13.2894 13.62L11.8787 15.0387ZM9.79869 2.212C8.43869 0.398669 5.76669 0.110669 4.14403 1.724L5.55336 3.14267C6.26269 2.43734 7.52136 2.51067 8.19736 3.41334L9.79869 2.212ZM2.83603 6.60534C2.80936 6.144 3.02136 5.66134 3.46136 5.224L2.04936 3.80534C1.33336 4.51734 0.769361 5.52534 0.837361 6.71734L2.83603 6.60534ZM22.4627 22.6853C22.0974 23.0507 21.7027 23.256 21.3094 23.292L21.4947 25.2827C22.4747 25.1907 23.276 24.6973 23.8734 24.104L22.4627 22.6853ZM11.1747 9.30534C12.488 8 12.5854 5.93734 11.48 4.46L9.8787 5.65867C10.416 6.37734 10.336 7.32 9.76536 7.88934L11.1747 9.30534ZM23.868 18.0507C24.9574 18.6427 25.1267 20.0373 24.3574 20.8027L25.768 22.22C27.5547 20.4427 27.004 17.4787 24.8214 16.2933L23.868 18.0507ZM19.28 16.9187C19.792 16.4093 20.616 16.284 21.32 16.6653L22.2747 14.9093C20.8294 14.1227 19.0374 14.34 17.8694 15.5L19.28 16.9187Z" fill="black"/>
</svg>
